<?xml version="1.0" encoding="UTF-8"?>
<svg width="400px" height="400px" viewBox="0 0 400 400" xmlns="http://www.w3.org/2000/svg" xmlns:xlink="http://www.w3.org/1999/xlink" version="1.1">
 <!-- Generated by Pixelmator Pro 1.3 -->
 <path id="path" d="M281.2 86 C281.2 86.22 280.388 86.4 279.395 86.4 278.402 86.4 277.277 86.559 276.895 86.753 274.862 87.787 274.039 88.071 273.694 87.858 273.258 87.589 271.208 88.446 271.203 88.9 271.201 89.065 270.93 89.2 270.6 89.2 270.27 89.2 270 89.38 270 89.6 270 89.82 269.64 90 269.2 90 268.76 90 268.4 90.199 268.4 90.443 268.4 90.686 268.13 90.782 267.8 90.655 267.47 90.529 267.2 90.594 267.2 90.8 267.2 91.006 266.93 91.071 266.6 90.945 266.22 90.799 266 90.95 266 91.357 266 91.711 265.73 92 265.4 92 265.061 92 264.8 92.358 264.8 92.824 264.8 93.284 264.619 93.536 264.39 93.394 263.926 93.107 261.2 95.667 261.2 96.389 261.2 96.953 260.209 98 259.675 98 259.118 98 258 99.841 258 100.757 258 101.189 257.73 101.813 257.4 102.143 257.07 102.473 256.8 103.116 256.8 103.571 256.8 104.027 256.62 104.4 256.4 104.4 256.18 104.4 256 104.672 256 105.005 256 105.338 255.841 105.923 255.647 106.305 254.717 108.134 254.444 109.322 254.015 113.412 253.725 116.184 253.69 118.192 253.921 118.812 254.123 119.356 254.32 120.97 254.358 122.4 254.396 123.83 254.601 125.06 254.814 125.133 255.026 125.207 255.2 125.532 255.2 125.857 255.2 126.198 254.989 126.34 254.7 126.193 254.425 126.053 254.605 126.297 255.1 126.734 255.595 127.171 256 127.724 256 127.964 256 128.204 256.191 128.4 256.425 128.4 256.659 128.4 256.818 128.715 256.779 129.1 256.614 130.723 256.832 131.6 257.4 131.6 257.73 131.6 258 131.878 258 132.217 258 132.87 258.356 133.392 260.052 135.227 260.694 135.922 260.928 136.438 260.652 136.551 260.403 136.653 260.526 136.751 260.924 136.768 261.322 136.786 261.551 136.956 261.433 137.147 261.315 137.337 261.617 137.832 262.103 138.247 262.838 138.873 262.895 138.882 262.444 138.3 261.513 137.097 262.264 137.532 264 139.2 264.916 140.08 265.525 140.8 265.353 140.8 264.992 140.8 265.898 141.778 266.32 141.844 268.611 142.205 269.21 142.544 268.984 143.352 268.789 144.051 268.828 144.095 269.204 143.6 269.549 143.147 269.711 143.123 269.864 143.5 269.975 143.775 270.422 144 270.855 144 271.987 144 275.2 145.536 275.2 146.077 275.2 146.328 275.318 146.415 275.463 146.27 275.608 146.125 275.997 146.23 276.328 146.503 276.808 146.899 276.964 146.898 277.098 146.5 277.191 146.225 277.522 146 277.833 146 278.145 146 278.403 146.225 278.406 146.5 278.41 146.839 278.549 146.807 278.837 146.4 279.156 145.948 279.311 145.924 279.464 146.3 279.733 146.964 290 147.022 290 146.36 290 146.085 290.662 145.972 291.762 146.06 292.731 146.137 293.451 146.083 293.362 145.939 293.227 145.72 295.2 144.772 296.067 144.641 296.213 144.618 296.468 144.465 296.633 144.3 296.798 144.135 297.4 144 297.97 144 298.588 144 299.218 143.663 299.528 143.167 299.823 142.694 300.298 142.429 300.624 142.554 300.941 142.675 301.2 142.644 301.2 142.484 301.2 142.323 301.579 141.956 302.042 141.667 302.658 141.282 302.802 141.273 302.58 141.632 302.385 141.947 302.442 142.021 302.738 141.838 302.992 141.681 303.2 141.293 303.2 140.976 303.2 140.659 303.391 140.4 303.624 140.4 303.857 140.4 303.918 140.625 303.759 140.9 303.592 141.19 303.624 141.26 303.836 141.067 304.036 140.883 304.223 140.568 304.25 140.367 304.372 139.473 304.436 139.434 304.844 140 305.203 140.5 305.236 140.478 305.039 139.87 304.769 139.038 305.678 137.936 306.47 138.136 306.762 138.209 306.863 138.193 306.695 138.099 306.527 138.006 307.022 137.298 307.795 136.525 308.568 135.752 309.2 134.807 309.2 134.424 309.2 134.042 309.646 133.525 310.192 133.276 310.84 132.981 311.103 132.612 310.949 132.212 310.802 131.829 310.941 131.6 311.32 131.6 311.728 131.6 311.857 131.34 311.716 130.8 311.579 130.277 311.704 130 312.075 130 312.462 130 312.675 129.456 312.742 128.3 312.796 127.365 313.011 126.54 313.22 126.467 313.429 126.393 313.6 125.898 313.6 125.367 313.6 124.835 313.741 124.4 313.912 124.4 314.084 124.4 314.429 123.859 314.679 123.197 314.928 122.536 314.968 122.096 314.766 122.221 314.565 122.345 314.4 122.087 314.4 121.647 314.4 121.207 314.58 120.736 314.8 120.6 315.023 120.462 315.2 118.604 315.2 116.4 315.2 114.196 315.023 112.338 314.8 112.2 314.58 112.064 314.4 111.593 314.4 111.153 314.4 110.713 314.58 110.464 314.8 110.6 315.566 111.073 315.194 109.773 314.4 109.2 313.93 108.861 313.6 108.165 313.6 107.512 313.6 106.9 313.42 106.4 313.2 106.4 312.98 106.4 312.8 106.13 312.8 105.8 312.8 105.47 312.996 105.2 313.236 105.2 313.475 105.2 313.194 104.633 312.61 103.939 311.787 102.961 311.667 102.603 312.075 102.339 312.466 102.087 312.37 101.937 311.7 101.753 311.205 101.618 310.8 101.337 310.8 101.13 310.8 100.922 310.999 100.876 311.241 101.026 311.484 101.176 311.374 100.826 310.995 100.249 310.617 99.672 310.081 99.2 309.804 99.2 309.527 99.2 309.186 98.631 309.047 97.936 308.908 97.241 308.688 96.779 308.557 96.909 308.427 97.04 307.718 96.574 306.982 95.873 306.246 95.173 305.409 94.384 305.122 94.119 303.885 92.979 303.544 92.402 304.084 92.36 304.368 92.338 304.15 92.187 303.6 92.025 303.05 91.862 302.65 91.507 302.71 91.234 302.783 90.907 302.546 90.827 302.008 90.997 301.464 91.17 301.117 91.048 300.955 90.628 300.823 90.282 300.374 90 299.957 90 299.541 90 299.2 89.82 299.2 89.6 299.2 89.38 298.829 89.2 298.376 89.2 297.923 89.2 297.664 89.02 297.8 88.8 297.936 88.58 297.756 88.4 297.4 88.4 297.044 88.4 296.864 88.22 297 88 297.148 87.761 296.652 87.6 295.768 87.6 294.828 87.6 294.094 87.345 293.757 86.9 293.432 86.472 293.22 86.395 293.213 86.7 293.199 87.224 292.002 87.421 291.997 86.9 291.995 86.735 291.545 86.392 290.996 86.137 290.448 85.883 290.1 85.838 290.223 86.037 290.346 86.237 289.897 86.4 289.224 86.4 288.551 86.4 288 86.22 288 86 288 85.765 286.6 85.6 284.6 85.6 282.6 85.6 281.2 85.765 281.2 86" fill="#2f95cc" fill-opacity="1" stroke="none"/>
 <path id="path-1" d="M47.8 2.363 C46.92 2.509 46.005 2.749 45.766 2.897 45.527 3.045 43.907 3.452 42.166 3.802 39.125 4.413 37.649 4.966 33.5 7.047 32.455 7.571 31.441 8 31.248 8 29.793 8 20.957 14.504 17.468 18.144 15.3 20.405 10.4 26.639 10.4 27.135 10.4 27.312 9.865 28.165 9.211 29.029 8.557 29.893 8.012 30.87 7.999 31.2 7.986 31.53 7.532 32.52 6.99 33.4 6.448 34.28 6.002 35.27 6 35.6 5.997 35.93 5.72 36.728 5.383 37.373 5.047 38.019 4.193 40.899 3.486 43.773 L2.2 49 2.2 200.8 2.2 352.6 3.306 357.4 C3.915 360.04 4.709 362.92 5.071 363.8 6.735 367.847 8.589 371.888 9.201 372.8 9.57 373.35 10.514 374.757 11.298 375.927 16.055 383.022 23.953 390.346 29.848 393.131 30.755 393.559 31.621 394.11 31.772 394.355 31.923 394.6 32.349 394.8 32.718 394.8 33.087 394.8 34.291 395.234 35.394 395.765 37.872 396.957 43.334 398.636 46.8 399.272 50.588 399.967 351.45 399.962 355.189 399.268 356.613 399.003 359.073 398.34 360.656 397.793 362.239 397.247 363.754 396.8 364.023 396.8 364.292 396.8 365.252 396.446 366.156 396.014 367.06 395.582 368.43 394.945 369.2 394.6 374.15 392.377 379.283 388.703 384.005 384 386.699 381.317 390.8 376.35 390.8 375.769 390.8 375.647 391.227 374.974 391.749 374.273 394.264 370.9 397.326 363.251 398.663 357 398.992 355.46 399.435 353.57 399.646 352.8 399.89 351.913 399.988 296.146 399.915 200.6 399.79 36.72 399.904 45.344 397.803 41.2 397.524 40.65 397.167 39.57 397.01 38.8 396.641 36.999 393.711 30.75 391.4 26.834 390.335 25.03 384.975 18.53 383.429 17.168 382.753 16.573 381.638 15.571 380.951 14.943 380.263 14.314 379.273 13.479 378.751 13.086 378.228 12.694 377.1 11.839 376.245 11.186 375.39 10.534 374.473 10 374.207 10 373.941 10 373.398 9.64 373 9.2 372.602 8.76 372.059 8.4 371.794 8.4 371.529 8.4 370.301 7.86 369.064 7.2 367.827 6.54 366.584 6 366.302 6 366.019 6 365.157 5.662 364.385 5.248 363.614 4.835 361.636 4.218 359.991 3.877 358.346 3.536 356.46 3.02 355.8 2.729 354.51 2.16 51.192 1.8 47.8 2.363 M350.841 42.39 C352.379 43.045 353.944 43.862 354.319 44.207 356.944 46.624 358.058 47.973 359.058 49.947 L360.2 52.2 360.2 201 360.2 349.8 359.222 351.8 C357.968 354.365 354.365 357.968 351.8 359.222 L349.8 360.2 201 360.2 52.2 360.2 49.852 359.01 C47.06 357.596 43.981 354.341 42.463 351.2 L41.4 349 41.4 201 41.4 53 42.644 50.388 C44.606 46.268 48.358 43.096 53.2 41.465 53.53 41.354 120.005 41.249 200.922 41.232 L348.044 41.2 350.841 42.39 M88.575 89.24 C88.053 90.085 88.299 311.196 88.823 311.828 89.472 312.61 311.139 312.701 311.92 311.92 312.503 311.337 312.616 170.161 312.034 169.242 311.735 168.769 305.637 168.708 272.053 168.842 L232.425 169 231.512 168.089 230.6 167.178 230.4 128.089 230.2 89 159.524 88.899 C108.273 88.826 88.774 88.919 88.575 89.24 M43.384 118.4 C43.384 128.41 43.436 132.505 43.5 127.5 43.563 122.495 43.563 114.305 43.5 109.3 43.436 104.295 43.384 108.39 43.384 118.4 M253.709 114 C253.709 114.99 253.787 115.395 253.882 114.9 253.978 114.405 253.978 113.595 253.882 113.1 253.787 112.605 253.709 113.01 253.709 114 M189.571 128.585 C190.194 128.907 190.815 129.462 190.952 129.818 191.568 131.425 191.219 166.995 190.577 167.911 L189.955 168.8 159.577 168.8 C129.733 168.8 129.186 168.786 128.4 168 127.623 167.223 127.6 166.667 127.6 148.67 L127.6 130.139 128.5 129.321 C129.916 128.032 129.135 128.065 159.52 128.032 184.163 128.005 188.607 128.087 189.571 128.585 M232.114 142.6 C232.117 143.7 232.195 144.103 232.287 143.495 232.379 142.886 232.377 141.986 232.282 141.495 232.187 141.003 232.111 141.5 232.114 142.6 M232.509 148 C232.509 148.99 232.587 149.395 232.682 148.9 232.778 148.405 232.778 147.595 232.682 147.1 232.587 146.605 232.509 147.01 232.509 148 M271.208 209.004 C273.244 210.057 273.2 209.361 273.2 240.804 L273.2 270.462 272.031 271.631 270.862 272.8 200.289 272.8 129.717 272.8 128.658 271.819 127.6 270.838 127.6 241.052 C127.6 224.669 127.711 210.976 127.847 210.622 128.475 208.985 127.791 209.008 181.2 208.796 209.47 208.683 241.024 208.548 251.32 208.496 267.365 208.414 270.207 208.486 271.208 209.004 M358.575 255.6 C358.575 261.43 358.631 263.815 358.699 260.9 358.767 257.985 358.767 253.215 358.699 250.3 358.631 247.385 358.575 249.77 358.575 255.6 M128.893 256.8 C128.893 257.57 128.975 257.885 129.076 257.5 129.176 257.115 129.176 256.485 129.076 256.1 128.975 255.715 128.893 256.03 128.893 256.8 M175.491 270.689 C176.201 270.777 177.461 270.779 178.291 270.692 179.121 270.605 178.54 270.533 177 270.531 175.46 270.529 174.781 270.6 175.491 270.689 M237.507 270.69 C238.226 270.779 239.306 270.777 239.907 270.686 240.508 270.595 239.92 270.522 238.6 270.524 237.28 270.526 236.788 270.601 237.507 270.69 M186.707 271.09 C187.426 271.179 188.506 271.177 189.107 271.086 189.708 270.995 189.12 270.922 187.8 270.924 186.48 270.926 185.988 271.001 186.707 271.09 M228.505 271.087 C229.114 271.179 230.014 271.177 230.505 271.082 230.997 270.987 230.5 270.911 229.4 270.914 228.3 270.917 227.897 270.995 228.505 271.087 M358.953 318.6 C358.953 321.24 359.018 322.268 359.097 320.884 359.175 319.501 359.174 317.341 359.095 316.084 359.016 314.828 358.952 315.96 358.953 318.6 M250.3 358.699 C253.215 358.767 257.985 358.767 260.9 358.699 263.815 358.631 261.43 358.575 255.6 358.575 249.77 358.575 247.385 358.631 250.3 358.699 M316.316 359.097 C317.699 359.175 319.859 359.174 321.116 359.095 322.372 359.016 321.24 358.952 318.6 358.953 315.96 358.953 314.932 359.018 316.316 359.097" fill="#343434" fill-opacity="1" stroke="none"/>
 <path id="path-2" d="M5.8 0.4 C5.953 0.648 9.572 0.8 15.324 0.801 32.732 0.803 43.182 1.414 37.909 2.122 36.978 2.246 36.153 2.54 36.075 2.774 35.997 3.008 35.509 3.2 34.99 3.2 34.472 3.2 33.936 3.38 33.8 3.6 33.664 3.82 33.203 4 32.776 4 32.349 4 32 4.18 32 4.4 32 4.62 31.73 4.8 31.4 4.8 31.07 4.8 30.8 4.96 30.8 5.155 30.8 5.351 30.209 5.622 29.487 5.757 28.765 5.893 27.922 6.353 27.614 6.78 27.306 7.208 26.93 7.481 26.779 7.387 26.627 7.293 26.075 7.59 25.552 8.047 25.028 8.504 23.954 9.209 23.165 9.614 22.376 10.019 21.296 10.9 20.765 11.571 20.234 12.243 19.561 12.794 19.27 12.796 18.723 12.8 13.201 18.172 13.198 18.703 13.197 18.866 12.388 19.892 11.399 20.982 10.411 22.073 9.499 23.288 9.374 23.682 9.249 24.077 8.978 24.4 8.773 24.4 8.568 24.4 8.4 24.655 8.4 24.967 8.4 25.278 8.256 25.593 8.08 25.667 7.622 25.857 5.6 29.594 5.6 30.25 5.6 30.553 5.465 30.801 5.3 30.803 4.941 30.807 4 32.744 4 33.48 4 33.766 3.82 34 3.6 34 3.38 34 3.2 34.349 3.2 34.776 3.2 35.203 3.037 35.654 2.837 35.777 2.638 35.9 2.349 36.917 2.195 38.038 1.47 43.308 1.061 38.827 0.879 23.613 0.776 15.026 0.536 8 0.346 8 0.155 8 0 18.455 0 31.267 0 44.063 0.101 54.432 0.225 54.308 0.349 54.184 0.786 51.769 1.195 48.941 1.605 46.114 2.21 42.99 2.539 42 2.869 41.01 3.346 39.411 3.599 38.447 8.454 19.951 28.676 3.632 49.988 1.013 57.588 0.079 344.597 0.083 352.063 1.018 356.309 1.549 364.098 3.459 366 4.435 366.33 4.605 368.04 5.419 369.8 6.245 383.141 12.508 393.268 24.09 398.441 39 L399.967 43.4 399.984 25.276 C399.994 13.292 399.865 7.237 399.6 7.4 399.35 7.555 399.2 11.585 399.2 18.165 399.2 28.978 398.943 33.6 398.343 33.6 398.154 33.6 398 33.393 398 33.14 398 32.43 396.045 28.599 395.244 27.739 394.851 27.318 394.415 26.529 394.275 25.987 394.135 25.444 393.476 24.37 392.811 23.6 392.146 22.83 391.601 22.066 391.601 21.903 391.598 21.124 385.605 14.62 383.028 12.6 382.186 11.94 380.961 10.905 380.306 10.3 379.651 9.695 378.947 9.2 378.741 9.2 378.535 9.2 377.98 8.84 377.508 8.4 377.036 7.96 376.413 7.6 376.125 7.6 375.836 7.6 375.6 7.42 375.6 7.2 375.6 6.98 375.33 6.8 375 6.8 374.67 6.8 374.4 6.64 374.4 6.443 374.4 6.247 373.907 5.963 373.304 5.812 372.701 5.66 372.116 5.416 372.004 5.268 371.655 4.809 368.354 3.2 367.762 3.2 367.453 3.2 367.2 3.02 367.2 2.8 367.2 2.58 366.514 2.4 365.676 2.4 364.839 2.4 363.824 2.159 363.421 1.865 362.558 1.233 371.812 0.803 386.3 0.801 391.699 0.8 394.8 0.654 394.8 0.4 394.8 0.134 329.659 0 200.176 0 70.529 0 5.635 0.134 5.8 0.4 M55.1 42.724 C46.17 43.463 68.952 43.6 201 43.6 299 43.6 348.4 43.466 348.4 43.2 348.4 42.954 346.434 42.8 343.3 42.801 340.495 42.801 274.84 42.756 197.4 42.701 119.96 42.645 55.925 42.656 55.1 42.724 M48.229 45.829 C47.277 46.78 47.476 47.028 48.5 46.166 48.995 45.75 49.475 45.362 49.567 45.304 49.658 45.247 49.536 45.2 49.295 45.2 49.054 45.2 48.574 45.483 48.229 45.829 M353.651 46.3 C353.953 46.685 354.665 47.45 355.234 48 355.803 48.55 356.355 49.261 356.461 49.58 356.58 49.939 356.752 50.002 356.91 49.745 357.174 49.319 354.066 45.6 353.446 45.6 353.257 45.6 353.349 45.915 353.651 46.3 M44.4 50.6 C44.4 50.93 44.244 51.2 44.053 51.2 42.716 51.2 42.455 55.607 42.716 73.8 42.869 84.509 43.085 90.666 43.249 89 43.401 87.46 43.544 79.826 43.568 72.035 43.591 64.244 43.764 57.674 43.951 57.435 44.138 57.196 44.326 55.74 44.369 54.2 44.411 52.66 44.616 51.229 44.823 51.02 45.316 50.523 45.304 50 44.8 50 44.58 50 44.4 50.27 44.4 50.6 M357.867 52.169 C357.66 52.71 357.81 55.591 358.181 58.2 358.275 58.86 358.399 101.205 358.456 152.3 358.514 203.394 358.699 245.061 358.868 244.892 359.382 244.378 359.325 55.148 358.81 53.237 358.33 51.456 358.198 51.306 357.867 52.169 M277.4 86 C277.264 86.22 276.623 86.4 275.976 86.4 275.329 86.4 274.8 86.56 274.8 86.755 274.8 87.059 273.428 87.466 271.7 87.673 271.425 87.706 271.2 87.839 271.2 87.969 271.2 88.099 270.615 88.463 269.9 88.778 268.329 89.47 267.395 90.336 267.807 90.719 267.973 90.874 268.19 90.775 268.288 90.5 268.386 90.225 268.812 90 269.233 90 269.655 90 270 89.82 270 89.6 270 89.38 270.27 89.2 270.6 89.2 270.93 89.2 271.201 89.065 271.203 88.9 271.208 88.446 273.258 87.589 273.694 87.858 274.039 88.071 274.862 87.787 276.895 86.753 277.277 86.559 278.402 86.4 279.395 86.4 280.388 86.4 281.2 86.22 281.2 86 281.2 85.78 280.401 85.6 279.424 85.6 278.447 85.6 277.536 85.78 277.4 86 M288 86.05 C288 86.243 288.551 86.4 289.224 86.4 289.897 86.4 290.35 86.243 290.231 86.05 290.112 85.858 289.561 85.7 289.007 85.7 288.453 85.7 288 85.858 288 86.05 M292 86.8 C292 87.02 292.27 87.2 292.6 87.2 292.93 87.2 293.2 87.02 293.2 86.8 293.2 86.58 292.93 86.4 292.6 86.4 292.27 86.4 292 86.58 292 86.8 M43.067 92.267 C42.629 92.705 42.755 100.4 43.2 100.4 43.441 100.4 43.6 98.733 43.6 96.2 43.6 92.005 43.568 91.766 43.067 92.267 M304.084 93.019 C304.368 93.36 304.835 93.855 305.122 94.119 305.409 94.384 306.264 95.191 307.022 95.913 309.171 97.961 308.64 96.803 306.364 94.479 304.521 92.596 302.831 91.514 304.084 93.019 M260.06 97.042 C259.331 97.866 259.8 98.257 260.581 97.476 260.921 97.136 261.2 96.754 261.2 96.629 261.2 96.209 260.606 96.424 260.06 97.042 M257.6 100.653 C257.6 101.086 257.384 101.656 257.12 101.92 256.755 102.285 256.753 102.4 257.112 102.4 257.634 102.4 258.242 100.509 257.848 100.115 257.712 99.978 257.6 100.221 257.6 100.653 M256.191 103.4 C256.008 103.84 255.744 104.29 255.604 104.4 254.982 104.89 253.964 109.276 254.105 110.861 L254.26 112.6 254.33 110.695 C254.369 109.647 254.608 108.387 254.862 107.895 255.827 106.028 256 105.595 256 105.039 256 104.724 256.201 104.4 256.446 104.318 256.691 104.236 256.809 103.816 256.708 103.385 256.526 102.611 256.519 102.611 256.191 103.4 M312.8 105.8 C312.8 106.13 312.98 106.4 313.2 106.4 313.42 106.4 313.6 106.94 313.6 107.6 313.6 108.26 313.78 108.8 314 108.8 314.528 108.8 314.505 108.147 313.92 106.528 313.423 105.154 312.8 104.749 312.8 105.8 M314.4 111.153 C314.4 112.196 315.016 112.577 315.092 111.58 315.123 111.16 314.981 110.712 314.775 110.584 314.569 110.457 314.4 110.713 314.4 111.153 M314.667 120.667 C314.298 121.036 314.332 122.311 314.717 122.549 314.891 122.656 315.074 122.217 315.123 121.572 315.215 120.369 315.131 120.202 314.667 120.667 M254.101 122.6 C254.105 123.48 254.187 123.793 254.283 123.295 254.379 122.798 254.375 122.078 254.275 121.695 254.175 121.313 254.096 121.72 254.101 122.6 M313.6 125.4 C313.6 125.95 313.42 126.4 313.2 126.4 312.98 126.4 312.8 126.861 312.8 127.424 312.8 127.987 312.957 128.35 313.148 128.232 313.451 128.045 313.623 127.508 314.216 124.9 314.278 124.625 314.165 124.4 313.965 124.4 313.764 124.4 313.6 124.85 313.6 125.4 M255.213 127.7 C255.243 128.877 256.8 130.152 256.8 129 256.8 128.67 256.62 128.4 256.4 128.4 256.18 128.4 256 128.13 256 127.8 256 127.47 255.82 127.2 255.6 127.2 255.38 127.2 255.206 127.425 255.213 127.7 M129.689 130.223 L128.8 130.845 128.8 148.378 C128.8 165.045 128.838 165.958 129.565 166.856 L130.329 167.8 159.323 167.8 C187.273 167.8 188.346 167.773 189.158 167.038 189.99 166.285 190 166.065 190 148.402 L190 130.528 188.981 130.064 C187.227 129.265 130.841 129.416 129.689 130.223 M311.6 130.6 C311.6 130.93 311.78 131.2 312 131.2 312.22 131.2 312.4 130.93 312.4 130.6 312.4 130.27 312.22 130 312 130 311.78 130 311.6 130.27 311.6 130.6 M188.752 144.828 C188.686 152.323 188.507 158.534 188.354 158.629 188.2 158.724 188.06 160.184 188.043 161.875 188.025 163.566 187.851 165.109 187.656 165.304 187.352 165.608 131.659 165.809 131.382 165.507 131.328 165.448 131.175 159.1 131.042 151.4 130.909 143.7 130.684 136.005 130.542 134.3 L130.285 131.2 159.578 131.2 188.871 131.2 188.752 144.828 M309.7 133.465 C309.425 133.576 309.2 133.996 309.2 134.4 309.2 134.803 308.565 135.733 307.789 136.466 303.859 140.182 303.161 140.895 303.309 141.042 303.397 141.131 304.297 140.437 305.309 139.501 306.32 138.566 307.478 137.53 307.883 137.2 308.763 136.481 310.941 133.187 310.506 133.232 310.338 133.249 309.975 133.354 309.7 133.465 M42.8 144.8 C42.8 150.133 42.946 153.2 43.2 153.2 43.454 153.2 43.6 150.133 43.6 144.8 43.6 139.467 43.454 136.4 43.2 136.4 42.946 136.4 42.8 139.467 42.8 144.8 M263.025 138.879 C263.671 139.582 264.404 140.383 264.652 140.659 264.901 140.936 265.208 141.059 265.334 140.932 265.565 140.702 262.547 137.6 262.093 137.6 261.959 137.6 262.379 138.175 263.025 138.879 M267.119 142.411 C267.585 142.845 268.244 143.2 268.583 143.2 268.922 143.2 269.2 143.352 269.2 143.537 269.2 143.919 271.941 145.323 273.9 145.945 274.663 146.188 275.2 146.206 275.2 145.989 275.2 145.543 271.917 144 270.969 144 270.598 144 270.003 143.685 269.647 143.3 269.291 142.915 268.386 142.38 267.636 142.111 L266.272 141.621 267.119 142.411 M299.592 143.01 C299.314 143.345 299.226 143.75 299.398 143.91 299.569 144.069 299.79 143.975 299.888 143.7 299.986 143.425 300.332 143.2 300.657 143.2 300.982 143.2 301.136 143.02 301 142.8 300.65 142.233 300.178 142.303 299.592 143.01 M296.633 144.3 C296.468 144.465 296.213 144.611 296.067 144.624 295.92 144.638 295.103 144.953 294.251 145.324 293.399 145.696 292.094 146 291.351 146 290.608 146 290 146.18 290 146.4 290 146.893 292.158 146.928 293.105 146.45 293.487 146.257 294.835 145.778 296.1 145.385 297.365 144.992 298.4 144.519 298.4 144.335 298.4 143.919 297.041 143.892 296.633 144.3 M232.093 145.6 C232.093 146.37 232.175 146.685 232.276 146.3 232.376 145.915 232.376 145.285 232.276 144.9 232.175 144.515 232.093 144.83 232.093 145.6 M277.2 146.4 C277.2 146.62 277.47 146.8 277.8 146.8 278.13 146.8 278.4 146.62 278.4 146.4 278.4 146.18 278.13 146 277.8 146 277.47 146 277.2 146.18 277.2 146.4 M232.018 157.6 C231.996 162.597 232.131 165.6 232.377 165.6 232.624 165.6 232.743 162.623 232.699 157.6 232.659 153.2 232.497 149.6 232.339 149.6 232.181 149.6 232.036 153.2 232.018 157.6 M42.871 251.5 C42.823 316.44 42.933 348.4 43.203 348.4 43.665 348.4 43.68 175.874 43.219 162.6 43.067 158.2 42.91 198.205 42.871 251.5 M232.8 166.629 C232.8 166.754 233.057 167.114 233.371 167.429 234.048 168.105 240.8 168.261 240.8 167.6 240.8 167.363 239.333 167.2 237.2 167.2 235.067 167.2 233.6 167.037 233.6 166.8 233.6 166.58 233.42 166.4 233.2 166.4 232.98 166.4 232.8 166.503 232.8 166.629 M130.4 210.801 C130.4 211.259 152.913 211.265 160.4 210.81 163.42 210.626 159.059 210.508 147.7 210.465 136.352 210.422 130.4 210.538 130.4 210.801 M182.8 210.813 C186.21 210.965 207.257 211.117 229.572 211.15 251.887 211.183 270.197 211.264 270.262 211.329 270.481 211.548 270.597 269.936 270.379 270.154 270.26 270.273 266.212 270.398 261.382 270.431 256.552 270.465 251.88 270.631 251 270.8 250.059 270.981 253.652 271.127 259.729 271.154 268.676 271.194 270.142 271.115 270.693 270.564 271.664 269.593 271.937 211.994 270.975 211.032 270.405 210.463 265.704 210.407 223.471 210.468 197.692 210.506 179.39 210.661 182.8 210.813 M128.806 216.1 C128.809 218.578 128.959 220.369 129.138 220.086 129.634 219.305 129.699 211.6 129.21 211.6 128.954 211.6 128.802 213.288 128.806 216.1 M128.869 223 C128.817 223.77 128.961 224.4 129.187 224.4 129.414 224.4 129.6 223.77 129.6 223 129.6 222.23 129.457 221.6 129.282 221.6 129.107 221.6 128.921 222.23 128.869 223 M128.893 227.6 C128.893 228.37 128.975 228.685 129.076 228.3 129.176 227.915 129.176 227.285 129.076 226.9 128.975 226.515 128.893 226.83 128.893 227.6 M358.942 257.4 C358.941 259.38 359.008 260.24 359.092 259.312 359.176 258.384 359.177 256.764 359.095 255.712 359.012 254.66 358.943 255.42 358.942 257.4 M128.8 265.757 C128.8 269.808 129.347 271.38 130.249 269.921 130.415 269.652 130.341 269.589 130.062 269.762 129.571 270.065 129.449 268.795 129.518 264.1 129.539 262.725 129.385 261.6 129.178 261.6 128.965 261.6 128.8 263.417 128.8 265.757 M130.4 270.787 C130.4 271.065 135.85 271.185 147.1 271.154 156.343 271.129 163.086 270.969 162.2 270.796 159.682 270.305 130.4 270.296 130.4 270.787 M165 270.8 C164.251 270.991 165.79 271.123 169.1 271.153 172.398 271.182 174.4 271.049 174.4 270.8 174.4 270.333 166.836 270.333 165 270.8 M240.8 270.8 C240.8 271.044 242.473 271.184 245.1 271.16 247.871 271.134 249.045 271.006 248.4 270.8 246.918 270.325 240.8 270.325 240.8 270.8 M181.111 271.093 C182.051 271.178 183.491 271.177 184.311 271.091 185.13 271.005 184.36 270.936 182.6 270.937 180.84 270.939 180.17 271.009 181.111 271.093 M232.291 271.089 C233.001 271.177 234.261 271.179 235.091 271.092 235.921 271.005 235.34 270.933 233.8 270.931 232.26 270.929 231.581 271 232.291 271.089 M358.984 296.8 C358.984 306.37 359.036 310.285 359.1 305.5 359.163 300.715 359.163 292.885 359.1 288.1 359.036 283.315 358.984 287.23 358.984 296.8 M312.4 313.2 C312.4 313.42 312.67 313.6 313 313.6 313.33 313.6 313.6 313.42 313.6 313.2 313.6 312.98 313.33 312.8 313 312.8 312.67 312.8 312.4 312.98 312.4 313.2 M0 371.133 C0 386.644 0.138 394.8 0.4 394.8 0.653 394.8 0.8 391.833 0.801 386.7 0.802 375.821 1.257 362.388 1.617 362.61 1.777 362.709 2.029 363.602 2.178 364.595 2.327 365.588 2.618 366.4 2.825 366.4 3.031 366.4 3.2 366.85 3.2 367.4 3.2 367.95 3.38 368.4 3.6 368.4 3.82 368.4 4 368.76 4 369.2 4 369.64 4.18 370 4.4 370 4.62 370 4.8 370.36 4.8 370.8 4.8 371.24 4.941 371.6 5.112 371.6 5.284 371.6 5.631 372.095 5.884 372.7 6.468 374.097 7.599 375.939 8.5 376.958 8.885 377.394 9.2 377.978 9.2 378.256 9.2 378.533 9.444 378.904 9.742 379.08 10.039 379.256 10.514 379.85 10.795 380.4 11.513 381.801 21.522 391.6 22.236 391.6 22.385 391.6 22.797 391.917 23.153 392.306 23.509 392.694 24.52 393.369 25.4 393.806 26.28 394.242 27.06 394.735 27.133 394.9 27.207 395.065 27.507 395.2 27.8 395.2 28.093 395.2 28.393 395.342 28.467 395.515 28.54 395.688 29.68 396.333 31 396.948 35.808 399.188 35.548 398.983 33.77 399.127 29.849 399.443 32.072 399.931 37.455 399.935 L43.4 399.94 39.885 398.778 C18.471 391.698 4.5 375.119 1.19 352.861 0.786 350.144 0.353 347.819 0.228 347.694 0.102 347.569 0 358.117 0 371.133 M357.783 349.572 C357.909 349.777 357.83 350.058 357.607 350.196 357.383 350.334 357.2 350.651 357.2 350.9 357.2 351.149 357.464 351.004 357.787 350.576 358.49 349.648 358.551 349.2 357.976 349.2 357.743 349.2 357.656 349.368 357.783 349.572 M46 353.876 C46 354.444 49.348 357.156 49.746 356.91 50.001 356.752 49.937 356.585 49.58 356.475 49.261 356.377 48.415 355.69 47.701 354.948 46.408 353.607 46 353.349 46 353.876 M350.196 357.607 C350.058 357.83 349.777 357.909 349.572 357.783 349.368 357.656 349.2 357.763 349.2 358.019 349.2 358.28 349.479 358.379 349.833 358.243 350.181 358.109 350.631 358 350.833 358 351.035 358 351.2 357.82 351.2 357.6 351.2 357.079 350.519 357.084 350.196 357.607 M52.029 357.982 C50.02 359.224 54.729 359.284 149.798 359.222 201.939 359.188 244.735 359.025 244.9 358.86 245.065 358.695 203.395 358.512 152.3 358.454 101.205 358.395 58.86 358.272 58.2 358.18 55.103 357.746 52.544 357.664 52.029 357.982 M255.712 359.095 C256.764 359.177 258.384 359.176 259.312 359.092 260.24 359.008 259.38 358.941 257.4 358.942 255.42 358.943 254.66 359.012 255.712 359.095 M288.1 359.1 C292.885 359.163 300.715 359.163 305.5 359.1 310.285 359.036 306.37 358.984 296.8 358.984 287.23 358.984 283.315 359.036 288.1 359.1 M399.205 360.5 C398.971 361.435 398.514 362.791 398.19 363.514 397.865 364.236 397.6 365.093 397.6 365.417 397.6 365.742 396.556 368.031 395.281 370.504 388.232 384.167 377.467 393.509 363.159 398.379 L358.701 399.897 372.579 399.956 C381.92 399.996 386.374 399.882 386.205 399.608 386.045 399.35 382.321 399.188 376.076 399.168 370.644 399.151 366.47 399.045 366.8 398.933 368.051 398.507 370.258 397.517 371.8 396.691 372.68 396.219 373.804 395.646 374.297 395.417 374.79 395.187 375.195 394.865 375.197 394.7 375.199 394.535 375.431 394.4 375.713 394.4 376.253 394.4 377.89 393.215 379.442 391.7 379.949 391.205 380.546 390.8 380.769 390.8 381.599 390.8 390.4 381.985 390.4 381.155 390.4 380.98 390.85 380.386 391.4 379.836 391.95 379.286 392.4 378.648 392.4 378.418 392.4 378.188 392.567 378 392.771 378 392.975 378 393.46 377.28 393.848 376.4 394.236 375.52 394.699 374.8 394.877 374.8 395.055 374.8 395.2 374.53 395.2 374.2 395.2 373.87 395.38 373.6 395.6 373.6 395.82 373.6 396 373.24 396 372.8 396 372.36 396.136 372 396.302 372 396.469 372 396.854 371.415 397.158 370.7 397.463 369.985 398.04 368.68 398.442 367.8 L399.171 366.2 399.185 369.7 C399.194 371.757 399.365 373.2 399.6 373.2 399.852 373.2 400 370.533 400 366 400 358.434 399.898 357.731 399.205 360.5" fill="#979898" fill-opacity="1" stroke="none"/>
 <path id="path-3" d="M49.401 1.05 C30.402 3.493 14.208 15.284 5.964 32.677 4.896 34.93 3.917 37.274 3.79 37.887 3.662 38.499 4.106 37.74 4.777 36.2 11.573 20.596 20.784 11.418 36.4 4.693 38.932 3.602 44.935 2.038 48.6 1.514 52.483 0.96 343.97 0.719 351.4 1.264 354.444 1.488 354.722 1.462 353.2 1.098 350.154 0.369 55.061 0.323 49.401 1.05 M357.8 2.415 C362.109 3.598 363.308 3.698 360.2 2.615 358.66 2.079 356.86 1.642 356.2 1.643 355.416 1.645 355.97 1.912 357.8 2.415 M365.8 4.819 C367.34 5.477 369.291 6.386 370.135 6.839 370.979 7.293 371.758 7.575 371.866 7.467 372.04 7.293 370.326 6.424 365.54 4.26 364.736 3.897 363.836 3.605 363.54 3.612 363.243 3.619 364.26 4.162 365.8 4.819 M373.196 8.3 C373.732 8.685 374.742 9.36 375.439 9.8 378.637 11.818 380.012 12.884 382.928 15.608 386.976 19.391 391.201 24.6 393.151 28.212 393.623 29.086 394.18 30.07 394.39 30.4 395.781 32.587 398.495 39.678 399.251 43.097 399.543 44.42 399.819 45.046 399.899 44.567 400.074 43.517 397.5 35.842 395.817 32.4 391.197 22.947 384.705 15.521 375.931 9.653 373.089 7.752 370.985 6.712 373.196 8.3 M2.636 41.682 C2.223 43.067 1.509 46.45 1.051 49.2 L0.217 54.2 0.217 201 0.217 347.8 1.071 352.8 C4.172 370.967 12.758 384.091 27.437 393.1 30.367 394.898 34.927 397.202 35.548 397.199 36.009 397.196 33.419 395.748 32.2 395.326 31.539 395.098 30.336 394.481 29.525 393.956 28.714 393.43 27.285 392.55 26.35 392 16.293 386.082 7.064 373.724 3.355 361.206 0.876 352.841 1.063 364.835 0.904 204 0.746 45.199 0.692 49.315 3.059 41.898 3.392 40.852 3.603 39.809 3.527 39.58 3.45 39.351 3.05 40.297 2.636 41.682 M53.2 42.702 C52.091 43.207 51.956 43.375 52.552 43.509 52.966 43.602 53.434 43.468 53.594 43.21 53.814 42.854 89.016 42.748 201.042 42.766 296.464 42.781 347.989 42.653 347.6 42.401 346.436 41.647 54.863 41.945 53.2 42.702 M348.4 43.2 C348.4 43.42 348.67 43.6 349 43.6 349.33 43.6 349.6 43.42 349.6 43.2 349.6 42.98 349.33 42.8 349 42.8 348.67 42.8 348.4 42.98 348.4 43.2 M48.793 44.548 C47.375 45.512 45.2 47.891 45.2 48.477 45.2 49.134 45.954 48.774 46.2 48 46.34 47.56 46.7 47.2 47 47.2 47.3 47.2 47.66 46.84 47.8 46.4 47.94 45.96 48.232 45.6 48.451 45.6 48.669 45.6 48.719 45.808 48.562 46.062 48.384 46.35 48.452 46.415 48.745 46.234 49.002 46.075 49.109 45.777 48.983 45.572 48.856 45.368 49.033 45.2 49.376 45.2 49.719 45.2 50 45.009 50 44.776 50 44.543 50.16 44.451 50.355 44.572 50.55 44.693 50.932 44.523 51.204 44.196 52.019 43.213 50.408 43.448 48.793 44.548 M350.808 44.21 C351.086 44.545 351.407 44.726 351.521 44.612 351.635 44.498 351.982 44.767 352.291 45.209 352.601 45.652 353.044 45.897 353.275 45.754 353.765 45.451 357.267 49.168 356.96 49.665 356.846 49.849 356.943 50 357.176 50 357.409 50 357.579 50.135 357.553 50.3 357.374 51.433 357.644 52.549 357.972 52.031 358.326 51.472 358.845 52.849 359.319 55.6 359.447 56.345 359.505 56.233 359.546 55.16 359.598 53.765 358.934 51.208 358.414 50.8 358.273 50.69 357.857 49.97 357.489 49.2 356.803 47.764 355.865 46.759 353.335 44.748 351.759 43.496 349.884 43.096 350.808 44.21 M43.843 50.1 C41.893 53.152 42 44.373 42.006 201.173 42.01 294.629 42.152 347.215 42.4 347.6 42.651 347.988 42.82 314.075 42.88 251.4 42.93 198.16 43.074 157.75 43.2 161.6 L43.429 168.6 43.514 160.9 C43.561 156.665 43.45 153.2 43.267 153.2 42.898 153.2 42.998 92.468 43.368 92.099 43.496 91.971 43.57 90.772 43.533 89.433 L43.466 87 43.23 89.4 C43.101 90.72 42.874 83.7 42.726 73.8 42.455 55.602 42.713 51.2 44.053 51.2 44.244 51.2 44.4 50.93 44.4 50.6 44.4 50.27 44.58 50 44.8 50 45.02 50 45.2 49.82 45.2 49.6 45.2 48.892 44.435 49.174 43.843 50.1 M359.389 90.2 C359.389 105.6 359.439 111.842 359.5 104.071 359.561 96.3 359.561 83.7 359.5 76.071 359.439 68.442 359.389 74.8 359.389 90.2 M87.604 87.796 C87.259 88.211 87.242 88.4 87.551 88.4 87.798 88.4 88 88.265 88 88.1 88 87.451 230.56 87.953 231.044 88.603 231.646 89.413 232 89.354 232 88.443 232 88.026 231.725 87.58 231.39 87.451 229.801 86.842 88.114 87.181 87.604 87.796 M86.658 90.275 C86.507 90.426 86.395 139.774 86.409 199.938 86.425 268.167 86.576 309.184 86.81 308.95 87.189 308.571 87.501 90.568 87.123 90.19 87.019 90.085 86.81 90.124 86.658 90.275 M129.6 129.718 L128.6 130.223 128.496 148.262 C128.396 165.545 128.424 166.341 129.161 167.251 L129.929 168.2 159.323 168.2 C187.666 168.2 188.746 168.173 189.558 167.438 190.39 166.685 190.4 166.469 190.4 148.561 L190.4 130.445 189.511 129.823 C188.307 128.979 131.258 128.879 129.6 129.718 M188.981 130.064 L190 130.528 190 148.402 C190 166.065 189.99 166.285 189.158 167.038 188.346 167.773 187.273 167.8 159.323 167.8 L130.329 167.8 129.565 166.856 C128.838 165.958 128.8 165.045 128.8 148.378 L128.8 130.845 129.689 130.223 C130.841 129.416 187.227 129.265 188.981 130.064 M358.546 150.2 C358.547 152.4 358.614 153.249 358.695 152.087 358.776 150.924 358.776 149.124 358.693 148.087 358.611 147.049 358.545 148 358.546 150.2 M232.101 148.2 C232.105 149.08 232.187 149.393 232.283 148.895 232.379 148.398 232.375 147.678 232.275 147.295 232.175 146.913 232.096 147.32 232.101 148.2 M232.493 154 C232.493 154.77 232.575 155.085 232.676 154.7 232.776 154.315 232.776 153.685 232.676 153.3 232.575 152.915 232.493 153.23 232.493 154 M231.664 164.646 C231.569 167.088 232.748 168.42 234.929 168.336 236.493 168.276 236.513 168.261 235.242 168.106 233.746 167.924 232.8 167.197 232.8 166.229 232.8 165.883 232.631 165.6 232.425 165.6 232.219 165.6 231.978 165.015 231.889 164.3 231.745 163.135 231.721 163.17 231.664 164.646 M156.705 165.883 C157.202 165.979 157.922 165.975 158.305 165.875 158.687 165.775 158.28 165.696 157.4 165.701 156.52 165.705 156.207 165.787 156.705 165.883 M240.8 167.515 C240.8 167.688 241.164 167.857 241.609 167.891 242.053 167.924 242.313 167.782 242.185 167.576 241.904 167.121 240.8 167.073 240.8 167.515 M312.23 168.749 C312.654 169.161 313.136 169.419 313.303 169.323 313.705 169.092 312.595 168 311.959 168 311.657 168 311.764 168.296 312.23 168.749 M358.58 199 C358.58 206.48 358.634 209.483 358.699 205.674 358.765 201.865 358.765 195.745 358.699 192.074 358.633 188.403 358.579 191.52 358.58 199 M43.293 196 C43.293 196.77 43.375 197.085 43.476 196.7 43.576 196.315 43.576 195.685 43.476 195.3 43.375 194.915 43.293 195.23 43.293 196 M231.2 210 C230.43 210.162 238.922 210.318 250.071 210.347 267.963 210.394 270.417 210.474 270.975 211.032 271.924 211.981 271.666 269.591 270.707 270.55 270.245 271.012 269.023 271.204 265.943 271.301 L261.8 271.431 266.046 271.516 C269.811 271.59 270.412 271.506 271.346 270.771 L272.4 269.942 272.4 241.004 C272.4 209.969 272.457 211.057 270.771 210.185 269.54 209.549 234.132 209.383 231.2 210 M129.289 210.623 C128.505 211.172 128.409 211.562 128.477 213.923 L128.554 216.6 128.696 214.1 C128.799 212.289 128.993 211.6 129.399 211.6 129.708 211.6 130.108 211.336 130.288 211.014 130.539 210.565 131.69 210.398 135.208 210.299 L139.8 210.171 134.989 210.086 C131.179 210.018 129.993 210.13 129.289 210.623 M161 210.8 C158.8 210.935 163.84 211.048 172.2 211.052 183.279 211.056 185.773 210.983 181.4 210.781 174.306 210.453 166.55 210.46 161 210.8 M129.169 219.9 C129.153 220.065 129.078 220.515 129.005 220.9 128.931 221.285 129.035 221.6 129.235 221.6 129.436 221.6 129.6 221.15 129.6 220.6 129.6 219.711 129.247 219.137 129.169 219.9 M358.953 249.4 C358.953 252.04 359.018 253.068 359.097 251.684 359.175 250.301 359.174 248.141 359.095 246.884 359.016 245.628 358.952 246.76 358.953 249.4 M270.563 252.8 C270.563 256.43 270.623 257.915 270.698 256.1 270.772 254.285 270.772 251.315 270.698 249.5 270.623 247.685 270.563 249.17 270.563 252.8 M358.965 272.6 C358.966 276.56 359.026 278.126 359.098 276.08 359.171 274.034 359.171 270.794 359.098 268.88 359.024 266.966 358.965 268.64 358.965 272.6 M128.467 268.677 C128.354 271.508 128.744 271.615 138.789 271.508 L147.4 271.417 138.945 271.301 C130.898 271.19 130.479 271.146 130.282 270.391 130.148 269.879 129.857 269.68 129.463 269.831 128.995 270.011 128.815 269.708 128.693 268.533 L128.534 267 128.467 268.677 M161.289 270.623 C161.591 270.924 165.595 270.938 165.895 270.639 166.026 270.507 164.993 270.4 163.6 270.4 162.207 270.4 161.167 270.5 161.289 270.623 M247.718 270.651 C248.018 270.951 251.614 270.919 251.92 270.614 252.037 270.496 251.083 270.4 249.8 270.4 248.517 270.4 247.58 270.513 247.718 270.651 M175.491 271.089 C176.201 271.177 177.461 271.179 178.291 271.092 179.121 271.005 178.54 270.933 177 270.931 175.46 270.929 174.781 271 175.491 271.089 M237.507 271.09 C238.226 271.179 239.306 271.177 239.907 271.086 240.508 270.995 239.92 270.922 238.6 270.924 237.28 270.926 236.788 271.001 237.507 271.09 M87.341 312.533 C87.484 312.936 87.6 313.341 87.6 313.433 87.6 313.525 138.18 313.6 200 313.6 274.667 313.6 312.4 313.466 312.4 313.2 312.4 312.934 274.76 312.8 200.28 312.8 111.138 312.8 88.05 312.698 87.621 312.3 87.18 311.891 87.129 311.933 87.341 312.533 M358.7 347.829 C358.535 347.996 358.4 348.564 358.4 349.09 358.4 349.642 358.226 349.94 357.99 349.794 357.765 349.655 357.609 349.689 357.644 349.87 357.772 350.537 357.09 352.8 356.761 352.8 356.289 352.8 352.8 356.333 352.8 356.811 352.8 357.025 352.44 357.2 352 357.2 351.56 357.2 351.2 357.401 351.2 357.647 351.2 357.896 350.847 358.001 350.399 357.884 349.959 357.769 349.7 357.838 349.823 358.037 349.946 358.237 349.597 358.4 349.047 358.4 348.497 358.4 347.936 358.58 347.8 358.8 347.38 359.48 349.151 359.242 351.089 358.36 353.643 357.196 356.925 353.971 358.194 351.377 359.139 349.445 359.483 347.033 358.7 347.829 M42.8 349 C42.8 349.33 42.98 349.6 43.2 349.6 43.42 349.6 43.6 349.33 43.6 349 43.6 348.67 43.42 348.4 43.2 348.4 42.98 348.4 42.8 348.67 42.8 349 M43.6 350.725 C43.6 353.774 51.093 359.677 54.807 359.554 55.621 359.526 55.868 359.431 55.4 359.323 52.1 358.564 51.485 358.318 52.031 357.972 52.549 357.644 51.433 357.374 50.3 357.553 50.135 357.579 50 357.409 50 357.176 50 356.943 49.849 356.846 49.665 356.96 49.175 357.263 46 354.265 46 353.499 46 353.139 45.641 352.594 45.203 352.287 44.764 351.98 44.498 351.635 44.612 351.521 44.726 351.407 44.545 351.086 44.21 350.808 43.834 350.496 43.6 350.464 43.6 350.725 M399.422 357.929 C399.258 358.659 399.222 359.356 399.342 359.476 399.643 359.777 400.12 357.756 399.899 357.117 399.801 356.833 399.586 357.198 399.422 357.929 M149.091 358.689 C149.801 358.777 151.061 358.779 151.891 358.692 152.721 358.605 152.14 358.533 150.6 358.531 149.06 358.529 148.381 358.6 149.091 358.689 M191.474 358.699 C195.255 358.765 201.555 358.765 205.474 358.699 209.393 358.634 206.3 358.58 198.6 358.58 190.9 358.58 187.693 358.634 191.474 358.699 M247.116 359.097 C248.499 359.175 250.659 359.174 251.916 359.095 253.172 359.016 252.04 358.952 249.4 358.953 246.76 358.953 245.732 359.018 247.116 359.097 M268.88 359.098 C270.794 359.171 274.034 359.171 276.08 359.098 278.126 359.026 276.56 358.966 272.6 358.965 268.64 358.965 266.966 359.024 268.88 359.098 M81.67 359.5 C89.959 359.56 103.639 359.56 112.07 359.5 120.502 359.44 113.72 359.39 97 359.39 80.28 359.39 73.382 359.439 81.67 359.5 M129.505 359.483 C130.002 359.579 130.722 359.575 131.105 359.475 131.487 359.375 131.08 359.296 130.2 359.301 129.32 359.305 129.007 359.387 129.505 359.483 M397.778 363.503 C391.865 381.307 378.169 393.707 358 399.515 356.991 399.806 356.848 399.93 357.489 399.959 357.978 399.982 360.318 399.352 362.689 398.561 380.288 392.684 393.479 379.224 398.849 361.662 399.752 358.709 398.862 360.239 397.778 363.503 M37.119 397.804 C39.356 398.776 44.014 400.057 44.725 399.896 45.096 399.812 44.32 399.51 43 399.225 41.68 398.939 39.738 398.367 38.685 397.953 36.461 397.078 35.166 396.956 37.119 397.804 M365.505 399.883 C366.002 399.979 366.722 399.975 367.105 399.875 367.487 399.775 367.08 399.696 366.2 399.701 365.32 399.705 365.007 399.787 365.505 399.883" fill="#868683" fill-opacity="1" stroke="none"/>
</svg>
